<svg width="24" height="24" viewBox="0 0 24 24" fill="none" xmlns="http://www.w3.org/2000/svg">
<path d="M14.6782 4.50171C14.6893 4.50646 14.7125 4.51943 14.7466 4.55347L14.7554 4.56226L14.7642 4.57007L21.3472 10.5554C21.4316 10.6407 21.5004 10.8001 21.5005 10.9998C21.5005 11.2005 21.4312 11.361 21.3462 11.446L14.7642 17.4304L14.7466 17.446C14.713 17.4796 14.6895 17.4919 14.6782 17.4968C14.6754 17.4952 14.6712 17.4936 14.6665 17.49C14.6105 17.4471 14.5005 17.2905 14.5005 16.9998V13.2H14.0005C9.61384 13.2 5.76552 15.6003 3.48389 19.2224C3.33212 19.4501 3.06058 19.5192 2.8042 19.4363C2.54768 19.3533 2.45423 19.1803 2.49072 18.9978L2.48975 18.9968C2.78541 17.6188 3.17405 16.2742 3.84033 15.0369L3.8501 15.0193C5.67608 11.2712 9.51302 8.49976 14.0005 8.49976H14.5005V4.99976C14.5005 4.70909 14.6105 4.55234 14.6665 4.50952C14.6715 4.50573 14.6754 4.50333 14.6782 4.50171Z" stroke="#797979"/>
</svg>
